<?xml version="1.0" standalone="no"?>
<!DOCTYPE svg PUBLIC "-//W3C//DTD SVG 20010904//EN"
 "http://www.w3.org/TR/2001/REC-SVG-20010904/DTD/svg10.dtd">
<svg version="1.0" xmlns="http://www.w3.org/2000/svg"
 width="240.000000pt" height="300.000000pt" viewBox="0 0 240.000000 300.000000"
 preserveAspectRatio="xMidYMid meet">
<metadata>
Created by potrace 1.10, written by Peter Selinger 2001-2011
</metadata>
<g transform="translate(0.000000,300.000000) scale(0.100000,-0.100000)"
fill="#000000" stroke="none">
<path d="M1549 2925 c-118 -38 -86 2 -964 -1185 -63 -85 -167 -225 -230 -310
-156 -208 -168 -232 -173 -345 -3 -76 0 -100 19 -150 30 -82 120 -172 204
-206 60 -24 60 -24 520 -27 l460 -3 0 -182 c0 -179 0 -183 28 -239 55 -111
152 -172 277 -172 91 0 154 27 217 92 70 72 83 123 83 326 l0 173 58 7 c173
20 290 154 280 321 -10 155 -122 270 -274 283 l-64 5 -2 686 -3 686 -26 55
c-33 70 -99 136 -168 168 -68 31 -174 39 -242 17z m236 -46 c59 -28 116 -82
147 -141 l23 -43 5 -705 5 -705 76 -5 c91 -7 154 -40 206 -108 39 -51 53 -98
52 -172 -2 -150 -108 -258 -266 -268 l-73 -5 3 -191 c1 -175 0 -195 -19 -237
-83 -181 -311 -224 -449 -85 -75 75 -85 116 -85 337 l0 178 -477 3 c-467 3
-479 4 -525 25 -66 30 -143 105 -175 172 -24 47 -28 68 -28 136 1 126 -27 81
500 790 78 105 240 323 360 485 347 469 355 479 392 507 87 66 227 80 328 32z"/>
<path d="M1557 2839 c-57 -14 -92 -34 -129 -79 -79 -92 -77 -218 5 -307 58
-63 89 -76 177 -77 88 0 118 13 177 77 80 86 82 224 5 310 -59 64 -154 96
-235 76z m136 -22 c128 -54 178 -198 110 -318 -24 -43 -41 -60 -86 -83 -156
-80 -327 21 -327 194 0 93 50 169 135 206 39 17 127 18 168 1z"/>
<path d="M1630 2310 c-121 -24 -190 -111 -190 -239 0 -70 25 -126 75 -170 52
-45 93 -61 160 -61 67 0 108 16 160 61 97 85 103 243 12 341 -50 54 -143 83
-217 68z m128 -26 c99 -41 160 -160 133 -260 -16 -60 -63 -118 -115 -143 -80
-39 -193 -25 -255 32 -35 32 -71 115 -71 165 0 152 168 265 308 206z"/>
<path d="M1035 2206 c-125 -58 -172 -215 -99 -332 97 -158 320 -155 407 5 51
92 44 186 -20 269 -59 77 -190 104 -288 58z m181 -1 c233 -97 174 -428 -77
-428 -151 0 -251 137 -210 290 31 113 178 184 287 138z"/>
<path d="M1388 1888 c-9 -13 -115 -153 -237 -313 l-222 -290 237 -3 c130 -1
238 -1 240 1 6 6 9 627 3 627 -4 0 -13 -10 -21 -22z m-6 -315 l-2 -258 -195
-3 c-107 -1 -195 0 -195 4 0 3 15 24 34 47 44 55 258 337 310 409 22 32 43 58
46 58 3 0 4 -116 2 -257z"/>
<path d="M713 1799 c-48 -24 -84 -62 -115 -122 -31 -61 -23 -161 18 -219 47
-68 100 -99 176 -105 81 -7 128 8 181 56 133 119 91 351 -72 400 -61 18 -141
14 -188 -10z m192 -8 c114 -52 167 -186 116 -296 -61 -132 -227 -171 -345 -81
-95 72 -105 247 -19 327 72 68 167 87 248 50z"/>
<path d="M1596 1808 c-53 -14 -131 -91 -145 -143 -27 -97 -7 -190 54 -249 53
-51 91 -66 169 -66 80 0 110 11 159 58 57 54 77 100 77 173 0 168 -144 272
-314 227z m138 -12 c94 -28 151 -97 163 -196 4 -38 0 -59 -19 -102 -30 -64
-57 -93 -113 -119 -138 -64 -302 35 -313 189 -8 122 93 233 219 241 9 1 37 -5
63 -13z"/>
<path d="M440 1281 c-76 -24 -127 -71 -161 -146 -63 -137 44 -308 202 -322 74
-7 130 13 186 66 115 111 88 310 -53 380 -51 26 -131 36 -174 22z m118 -13
c35 -8 60 -25 97 -62 93 -94 99 -201 16 -297 -85 -100 -234 -107 -325 -16
-125 125 -64 336 109 378 44 10 52 10 103 -3z"/>
<path d="M895 1210 c-93 -51 -135 -119 -135 -221 0 -53 5 -73 30 -116 36 -63
113 -113 170 -112 20 1 26 3 15 6 -83 18 -150 65 -182 127 -25 47 -22 164 5
207 46 76 108 109 199 109 73 0 130 -26 171 -76 109 -132 39 -319 -135 -364
l-38 -10 46 4 c64 5 127 50 163 116 25 46 28 59 24 125 -3 62 -8 80 -34 117
-16 23 -50 56 -74 73 -61 41 -164 47 -225 15z"/>
<path d="M1379 1202 c-177 -92 -169 -333 15 -429 19 -11 55 -17 97 -17 54 0
74 5 113 28 86 50 133 139 123 233 -17 168 -198 264 -348 185z m191 -2 c43
-12 103 -71 125 -122 34 -83 13 -183 -51 -245 -132 -127 -345 -55 -379 129
-15 82 49 199 130 234 36 16 126 18 175 4z"/>
<path d="M1894 1216 c-46 -20 -103 -74 -125 -119 -47 -91 -17 -227 63 -290 37
-30 124 -60 142 -49 5 3 -11 10 -35 17 -104 26 -170 99 -177 196 -5 71 11 121
55 170 47 51 105 72 187 67 53 -3 73 -10 108 -35 157 -113 103 -357 -89 -402
l-38 -9 33 -1 c65 -2 156 68 188 145 17 41 18 133 2 171 -40 93 -130 153 -228
153 -30 -1 -69 -7 -86 -14z"/>
<path d="M1645 689 c-85 -24 -157 -130 -156 -229 0 -152 132 -258 282 -230 86
17 147 69 179 154 16 43 6 41 -13 -2 -81 -185 -335 -189 -418 -7 -85 184 121
375 307 285 43 -22 114 -99 114 -126 0 -7 5 -16 11 -19 11 -8 -14 58 -36 92
-20 30 -73 68 -114 82 -39 13 -112 13 -156 0z"/>
</g>
</svg>
