<?xml version="1.0" standalone="no"?>
<!DOCTYPE svg PUBLIC "-//W3C//DTD SVG 20010904//EN"
 "http://www.w3.org/TR/2001/REC-SVG-20010904/DTD/svg10.dtd">
<svg version="1.0" xmlns="http://www.w3.org/2000/svg"
 width="186.000000pt" height="300.000000pt" viewBox="0 0 186.000000 300.000000"
 preserveAspectRatio="xMidYMid meet">
<metadata>
Created by potrace 1.10, written by Peter Selinger 2001-2011
</metadata>
<g transform="translate(0.000000,300.000000) scale(0.100000,-0.100000)"
fill="#000000" stroke="none">
<path d="M1002 2951 c-67 -17 -136 -63 -445 -295 -336 -251 -360 -274 -387
-371 -20 -70 -9 -172 25 -234 65 -119 182 -187 310 -179 78 5 108 18 253 109
l92 58 0 -858 c0 -771 2 -862 17 -907 30 -92 104 -168 193 -199 67 -24 175
-20 237 10 71 32 137 102 163 171 20 55 20 62 18 1238 l-3 1181 -33 67 c-38
77 -106 144 -187 184 -43 20 -73 27 -137 30 -46 2 -98 -1 -116 -5z m256 -61
c78 -41 143 -112 174 -188 l23 -57 0 -1155 c0 -923 -3 -1164 -13 -1200 -47
-160 -236 -248 -387 -181 -59 26 -118 80 -148 136 -22 40 -22 41 -27 942 l-5
902 -120 -76 c-142 -90 -196 -113 -268 -113 -75 0 -139 25 -195 75 -67 60 -96
122 -100 215 -4 69 -1 80 30 140 37 71 2 42 484 401 255 191 275 201 404 196
74 -3 93 -7 148 -37z"/>
<path d="M1072 2840 c-202 -82 -218 -352 -27 -453 55 -29 155 -29 211 0 54 28
110 92 123 140 47 170 -64 324 -231 322 -29 0 -63 -4 -76 -9z m171 -24 c79
-32 132 -119 131 -211 0 -97 -44 -164 -134 -204 -172 -78 -361 87 -310 270 13
45 83 127 125 145 39 17 147 18 188 0z"/>
<path d="M586 2595 c-86 -30 -156 -133 -156 -227 1 -134 105 -239 238 -239 98
-1 179 48 223 133 27 52 26 157 -2 215 -53 109 -185 160 -303 118z m193 -29
c50 -24 84 -64 106 -125 21 -61 19 -108 -9 -166 -57 -123 -188 -169 -306 -107
-185 97 -155 365 47 417 58 15 103 10 162 -19z"/>
<path d="M1090 2281 c-74 -23 -127 -69 -159 -141 -67 -149 38 -328 196 -335
91 -5 131 10 189 69 61 60 79 111 71 199 -8 87 -46 143 -126 184 -64 33 -116
41 -171 24z m148 -27 c77 -32 142 -128 142 -209 0 -46 -37 -132 -71 -165 -62
-59 -175 -77 -255 -41 -76 35 -134 127 -134 212 0 44 39 126 76 161 61 56 165
75 242 42z"/>
<path d="M1062 1767 c-153 -56 -202 -273 -89 -396 36 -39 115 -71 177 -71 169
0 277 153 229 324 -14 51 -91 128 -145 144 -51 15 -128 14 -172 -1z m163 -13
c96 -33 165 -142 151 -240 -20 -149 -181 -245 -311 -185 -156 71 -191 256 -70
374 64 62 144 80 230 51z"/>
<path d="M1062 1207 c-124 -45 -187 -203 -131 -327 27 -60 54 -88 114 -116 95
-45 202 -27 275 46 66 65 86 155 59 254 -14 51 -91 128 -145 144 -51 15 -128
14 -172 -1z m186 -23 c177 -88 170 -332 -13 -415 -171 -78 -372 114 -300 287
55 132 192 188 313 128z"/>
<path d="M1086 649 c-112 -27 -184 -133 -174 -253 11 -131 106 -218 238 -218
205 0 313 229 186 396 -48 64 -161 98 -250 75z m165 -30 c74 -37 129 -127 129
-210 0 -48 -41 -130 -81 -163 -47 -40 -90 -56 -149 -56 -91 0 -166 49 -206
135 -39 83 -27 164 34 235 71 84 178 107 273 59z"/>
</g>
</svg>
