<?xml version="1.0" standalone="no"?>
<!DOCTYPE svg PUBLIC "-//W3C//DTD SVG 20010904//EN"
 "http://www.w3.org/TR/2001/REC-SVG-20010904/DTD/svg10.dtd">
<svg version="1.0" xmlns="http://www.w3.org/2000/svg"
 width="214.000000pt" height="300.000000pt" viewBox="0 0 214.000000 300.000000"
 preserveAspectRatio="xMidYMid meet">
<metadata>
Created by potrace 1.10, written by Peter Selinger 2001-2011
</metadata>
<g transform="translate(0.000000,300.000000) scale(0.100000,-0.100000)"
fill="#000000" stroke="none">
<path d="M949 2980 c-255 -32 -496 -175 -652 -388 -59 -80 -81 -147 -74 -222
18 -198 231 -331 418 -261 58 22 101 59 181 153 130 154 372 159 447 9 45 -87
33 -230 -24 -305 -51 -67 -96 -86 -227 -95 -127 -9 -168 -24 -231 -88 -57 -56
-79 -107 -85 -189 -6 -94 15 -158 74 -223 66 -73 115 -92 260 -101 139 -9 188
-26 257 -89 66 -61 91 -125 91 -236 0 -142 -48 -224 -166 -287 -37 -20 -58
-23 -143 -23 -128 0 -159 15 -280 140 -74 75 -100 96 -148 113 -204 77 -421
-59 -435 -272 -8 -123 26 -194 153 -321 163 -165 352 -253 592 -276 232 -23
455 26 643 140 140 84 271 223 339 360 144 287 131 631 -33 895 -26 41 -71
101 -100 132 l-54 56 52 77 c150 219 178 540 72 803 -97 239 -327 430 -584
483 -86 18 -259 26 -343 15z m364 -49 c279 -74 498 -288 573 -561 26 -93 26
-349 1 -440 -26 -94 -75 -196 -130 -269 l-48 -64 45 -41 c100 -92 189 -243
228 -385 30 -109 31 -353 0 -462 -81 -297 -316 -534 -623 -627 -153 -47 -376
-52 -545 -12 -222 52 -472 236 -550 405 -50 105 -25 235 60 321 59 59 121 84
206 84 100 0 144 -23 245 -126 120 -124 165 -145 330 -156 141 -9 200 -27 243
-71 40 -42 72 -112 72 -162 0 -87 -77 -192 -157 -214 -143 -40 -276 43 -299
186 -13 84 44 189 126 230 24 13 36 23 27 23 -48 0 -114 -59 -146 -130 -54
-120 3 -262 129 -319 86 -39 173 -24 248 44 77 69 101 166 67 266 -31 88 -98
140 -193 148 l-67 6 55 19 c75 26 160 110 186 186 30 86 26 208 -10 285 -64
141 -181 205 -374 205 -60 0 -88 5 -127 24 -171 81 -212 307 -80 438 62 61
108 78 238 87 102 6 121 11 156 34 50 34 97 96 112 151 17 58 15 184 -3 226
-21 50 -64 98 -112 123 -33 18 -58 22 -126 22 -76 0 -93 -4 -152 -33 -49 -24
-82 -50 -120 -94 -120 -139 -146 -153 -268 -153 -67 0 -93 5 -125 22 -62 32
-121 103 -139 164 -33 109 -13 181 79 296 144 180 350 303 565 338 116 19 302
13 403 -14z"/>
<path d="M1043 2919 c-110 -54 -163 -197 -114 -304 47 -104 112 -145 228 -145
92 0 131 19 187 90 68 86 70 192 6 285 -31 45 -115 96 -154 94 -12 -1 -5 -5
17 -11 55 -15 132 -88 151 -145 20 -59 20 -97 0 -155 -61 -181 -320 -199 -406
-29 -67 131 -3 283 136 327 31 10 35 13 16 13 -14 1 -44 -8 -67 -20z"/>
<path d="M524 2736 c-91 -40 -148 -127 -148 -226 0 -74 17 -115 72 -173 86
-89 254 -87 337 4 20 23 46 62 57 87 48 108 -12 251 -127 303 -48 22 -146 24
-191 5z m159 -7 c53 -14 132 -93 146 -144 43 -159 -56 -298 -214 -298 -91 -1
-163 45 -201 127 -44 95 -24 198 53 266 65 57 133 72 216 49z"/>
<path d="M1545 2577 c-60 -25 -92 -47 -120 -83 -74 -97 -72 -207 5 -304 48
-61 93 -80 188 -80 69 0 83 3 123 29 25 15 60 50 77 76 29 43 32 56 32 121 0
79 -10 110 -51 164 -52 68 -181 107 -254 77z m192 -43 c51 -39 69 -61 89 -111
40 -102 -7 -224 -105 -275 -230 -120 -446 173 -263 357 55 55 86 65 174 61 56
-3 74 -8 105 -32z"/>
<path d="M1440 2035 c-62 -20 -113 -65 -144 -127 -100 -201 120 -423 321 -323
101 51 160 169 134 271 -35 137 -181 221 -311 179z m144 -16 c56 -16 122 -80
142 -141 63 -191 -126 -359 -309 -275 -213 97 -142 421 93 426 19 1 52 -4 74
-10z"/>
<path d="M1009 1801 c-54 -11 -104 -47 -139 -99 -39 -59 -43 -77 -38 -157 5
-76 37 -131 106 -180 37 -25 55 -30 116 -33 62 -3 80 0 122 21 56 29 83 55
113 112 25 47 28 138 7 189 -17 41 -80 112 -115 131 -33 17 -126 26 -172 16z
m139 -23 c46 -14 101 -65 123 -113 27 -59 25 -150 -4 -206 -66 -125 -236 -157
-344 -64 -92 79 -102 238 -20 327 62 67 146 86 245 56z"/>
<path d="M1545 1497 c-59 -23 -104 -58 -134 -103 -132 -200 87 -452 304 -350
92 42 139 118 139 221 -1 79 -16 116 -68 168 -64 64 -171 93 -241 64z m171
-30 c161 -83 164 -316 5 -399 -169 -88 -355 46 -327 235 12 78 76 153 152 177
40 13 135 5 170 -13z"/>
<path d="M1597 936 c-107 -38 -167 -120 -167 -226 0 -98 32 -157 113 -212 35
-25 49 -28 118 -28 91 0 114 7 164 52 143 125 93 359 -89 413 -60 18 -89 18
-139 1z m193 -40 c66 -44 94 -97 98 -185 3 -70 1 -80 -27 -123 -42 -67 -100
-101 -179 -106 -109 -7 -194 50 -230 157 -35 101 24 229 128 276 54 24 159 15
210 -19z"/>
<path d="M518 775 c-122 -46 -185 -162 -158 -291 10 -49 20 -66 65 -110 93
-94 214 -101 322 -18 74 57 106 188 68 280 -47 113 -191 180 -297 139z m153
-20 c86 -31 148 -117 149 -207 1 -157 -144 -261 -303 -217 -81 22 -148 115
-149 207 0 63 7 86 44 139 55 81 160 112 259 78z"/>
</g>
</svg>
