<?xml version="1.0" standalone="no"?>
<!DOCTYPE svg PUBLIC "-//W3C//DTD SVG 20010904//EN"
 "http://www.w3.org/TR/2001/REC-SVG-20010904/DTD/svg10.dtd">
<svg version="1.0" xmlns="http://www.w3.org/2000/svg"
 width="211.000000pt" height="300.000000pt" viewBox="0 0 211.000000 300.000000"
 preserveAspectRatio="xMidYMid meet">
<metadata>
Created by potrace 1.10, written by Peter Selinger 2001-2011
</metadata>
<g transform="translate(0.000000,300.000000) scale(0.100000,-0.100000)"
fill="#000000" stroke="none">
<path d="M876 2990 c-156 -25 -347 -107 -483 -209 -155 -115 -198 -184 -197
-311 0 -90 23 -148 84 -214 63 -69 137 -101 230 -100 92 0 141 20 225 93 160
138 372 176 499 88 40 -28 66 -90 66 -163 0 -73 -30 -196 -65 -265 -62 -125
-216 -286 -480 -504 -239 -198 -414 -374 -484 -488 -98 -159 -135 -280 -135
-437 -1 -96 2 -110 29 -163 37 -75 118 -149 191 -177 55 -20 67 -20 733 -18
l676 3 43 23 c66 35 119 88 149 150 40 81 40 183 0 264 -32 65 -89 121 -156
152 -44 20 -64 21 -460 26 l-414 5 224 192 c425 363 636 607 729 843 85 215
98 485 33 680 -43 130 -79 187 -187 295 -87 87 -114 108 -196 148 -143 71
-223 88 -425 92 -93 2 -196 0 -229 -5z m442 -39 c165 -41 278 -103 390 -213
154 -152 216 -313 215 -558 0 -194 -45 -372 -134 -527 -94 -164 -340 -427
-624 -668 -99 -84 -209 -180 -245 -213 l-65 -61 440 -1 440 0 61 -29 c217
-102 218 -397 2 -505 l-52 -26 -666 0 c-753 0 -721 -3 -810 77 -28 25 -63 69
-78 97 -25 47 -27 60 -26 161 0 130 18 205 75 319 97 192 214 318 564 606 208
171 355 322 432 443 39 62 81 189 88 273 18 190 -69 284 -264 284 -131 0 -248
-50 -356 -150 -57 -53 -113 -74 -195 -74 -94 0 -152 26 -215 96 -101 112 -97
280 7 388 130 133 369 254 585 295 108 20 320 13 431 -14z"/>
<path d="M1053 2925 c-37 -19 -62 -41 -90 -82 -36 -53 -38 -59 -38 -137 0 -93
15 -133 72 -189 97 -98 286 -87 372 22 57 72 74 160 46 242 -36 104 -114 160
-235 166 -66 4 -81 1 -127 -22z m195 1 c92 -33 149 -105 159 -199 19 -181
-161 -317 -326 -247 -153 66 -198 248 -92 371 65 77 169 107 259 75z"/>
<path d="M535 2789 c-58 -14 -115 -58 -150 -113 -39 -64 -47 -161 -17 -228 48
-109 138 -164 253 -156 177 13 289 197 215 353 -54 117 -176 175 -301 144z
m162 -25 c52 -19 115 -87 131 -142 49 -162 -58 -312 -223 -312 -107 0 -198 64
-231 162 -29 88 -9 169 57 236 76 77 158 94 266 56z"/>
<path d="M1525 2577 c-57 -19 -110 -64 -140 -119 -55 -101 -33 -244 50 -317
101 -88 275 -77 363 24 45 50 62 98 62 169 -1 144 -99 246 -243 251 -34 1 -75
-3 -92 -8z m156 -17 c48 -13 118 -75 140 -124 45 -100 10 -237 -76 -296 -162
-112 -376 -1 -376 194 0 160 152 270 312 226z"/>
<path d="M1396 2020 c-56 -28 -83 -56 -113 -118 -51 -104 -31 -212 54 -294 51
-49 99 -68 175 -68 147 1 247 103 248 250 0 109 -55 197 -147 235 -52 22 -169
19 -217 -5z m209 -9 c151 -68 193 -263 82 -379 -97 -101 -257 -103 -348 -5
-49 52 -63 92 -63 175 0 68 4 81 29 115 36 49 61 70 110 93 52 25 137 25 190
1z"/>
<path d="M1115 1581 c-115 -28 -195 -131 -195 -249 0 -77 26 -137 82 -188 54
-48 95 -64 168 -64 129 0 242 100 257 229 19 165 -149 311 -312 272z m129 -25
c62 -19 111 -58 138 -109 32 -59 32 -175 1 -233 -93 -176 -347 -161 -432 26
-41 90 -22 179 54 256 70 70 143 89 239 60z"/>
<path d="M600 1199 c-97 -43 -160 -138 -160 -240 0 -182 203 -305 368 -223
156 78 190 289 66 409 -75 73 -184 95 -274 54z m181 -14 c52 -19 103 -65 132
-120 26 -51 28 -145 3 -197 -40 -83 -137 -148 -221 -148 -85 0 -179 63 -216
144 -20 45 -24 122 -9 175 36 127 177 193 311 146z"/>
<path d="M380 694 c-45 -20 -96 -69 -123 -119 -31 -57 -30 -173 0 -231 45 -85
129 -134 229 -134 126 0 219 71 245 185 27 123 -19 235 -121 287 -43 23 -65
28 -124 28 -40 -1 -86 -7 -106 -16z m205 -18 c91 -43 138 -117 138 -216 0 -97
-50 -176 -138 -216 -201 -94 -409 123 -310 323 58 116 194 164 310 109z"/>
<path d="M942 654 c-91 -45 -141 -127 -142 -229 0 -147 105 -250 255 -250 59
0 79 5 124 30 99 55 145 158 122 274 -33 162 -210 249 -359 175z m239 -30 c69
-46 102 -102 107 -178 5 -79 -8 -121 -54 -175 -51 -59 -105 -85 -179 -85 -216
0 -320 261 -163 411 52 50 93 64 174 60 59 -3 79 -9 115 -33z"/>
<path d="M1514 657 c-100 -48 -153 -147 -141 -262 22 -211 282 -299 434 -146
50 49 68 97 67 176 0 81 -18 126 -71 178 -49 50 -98 70 -173 74 -53 3 -75 -1
-116 -20z m206 -18 c60 -27 88 -54 116 -114 87 -184 -84 -388 -278 -331 -103
30 -173 123 -172 231 2 173 177 285 334 214z"/>
</g>
</svg>
