<?xml version="1.0" encoding="UTF-8"?>
<svg version="1.1" viewBox="0 0 318 411" xmlns="http://www.w3.org/2000/svg">
<path transform="translate(0)" d="m0 0h318v411h-318v-411z" fill="#FDFDFD"/>
<path transform="translate(0)" d="m0 0h318v411h-318v-411zm133 14c-1.195 0.35062-2.3899 0.70125-3.6211 1.0625-38.996 12.748-65.459 44.544-83.465 80.016-7.9849 16.133-13.916 33.233-16.914 50.984-0.26164 1.5298-0.26164 1.5298-0.52856 3.0906-2.5161 14.846-4.6125 29.492-4.6746 44.573-0.0057001 1.1053-0.0114 2.2106-0.017273 3.3495-0.0094017 2.3347-0.015965 4.6694-0.019836 7.0041-0.0096049 3.4866-0.040634 6.9725-0.072266 10.459-0.089485 19.084 0.62684 39.068 6.3125 57.461l1 1c0.30427 1.4099 0.56721 2.8287 0.8125 4.25 1.7009 8.8068 4.298 17.39 8.1362 25.506 0.99059 2.1144 1.9317 4.2438 2.8638 6.3845 9.4543 21.29 21.307 39.68 37.646 56.279 1.3274 1.3615 2.6177 2.7589 3.9004 4.1626 18.693 20.064 47.969 31.027 74.871 32.544 19.114 0.63548 37.232-2.0864 54.769-10.126l2-2c2.125-0.625 2.125-0.625 4-1v-2c1.0828-0.40605 1.0828-0.40605 2.1875-0.82031 9.9996-4.1943 17.723-11.368 25.392-18.811 1.1695-1.1273 2.364-2.2285 3.5649-3.3223 12.062-11.275 20.842-25.634 28.715-39.992 1.0525-1.8966 2.1516-3.7574 3.2612-5.6208 2.0098-3.6729 3.478-7.3134 4.8789-11.246 0.51479-1.4092 1.0304-2.818 1.5469-4.2266 0.24686-0.67708 0.49371-1.3542 0.74805-2.0518 1.78-4.8198 3.6966-9.5986 5.752-14.308 1.0464-2.8562 1.5195-5.5306 1.9531-8.5391 0.44206-3.0589 0.91178-5.8161 1.9546-8.7292 1.2121-3.8648 1.8133-7.6984 2.3345-11.7 0.10842-0.81546 0.21684-1.6309 0.32855-2.4711 0.34791-2.6775 0.68046-5.3565 1.0074-8.0367 0.16958-1.3814 0.16958-1.3814 0.34259-2.7908 1.6739-13.963 2.4897-27.773 2.4074-41.834-0.004411-0.80597-0.008822-1.6119-0.013367-2.4423-0.070108-8.6291-0.37412-17.242-0.83429-25.858-0.039326-0.7396-0.078653-1.4792-0.11917-2.2412-0.60176-10.328-3.0978-19.885-5.833-29.829-0.60981-2.257-1.1929-4.5197-1.7705-6.7852-7.7489-30.349-19.927-56.608-40.273-80.542-1.0318-1.2138-2.055-2.4351-3.0698-3.6631-3.0113-3.6093-6.0768-6.7028-9.7747-9.6392-0.95906-0.76184-1.9181-1.5237-2.9062-2.3086-1.3767-1.0847-1.3767-1.0847-2.7812-2.1914-0.73219-0.60973-1.4644-1.2195-2.2188-1.8477-28.508-23.349-68.506-31.724-103.78-21.152z" fill="#FDFDFD"/>
<path transform="translate(185.52 98.844)" d="m0 0c13.842 11.397 20.701 28.37 25.605 45.156 0.34619 1.1783 0.69239 2.3566 1.0491 3.5706 2.7754 9.7182 4.7901 19.378 5.8259 29.429 0.092812 0.87173 0.18562 1.7435 0.28125 2.6416 0.73814 7.7219 0.87298 15.415 0.84912 23.167-0.0053468 2.0575-2.542e-5 4.1148 0.0063477 6.1724 0.021868 34.841-5.9819 75.844-31.137 102.02-6.7357 6.3007-14.613 10.093-23.875 10.625-8.7157-0.31408-17.107-4.7559-23.422-10.703-21.534-24.3-29.761-59.903-29.906-91.59-0.0057001-0.99671-0.0114-1.9934-0.017273-3.0203-0.009393-2.1035-0.015961-4.207-0.019836-6.3105-0.0096025-3.1355-0.040638-6.2702-0.072266-9.4055-0.12064-22.875 1.8877-46.472 11.312-67.596 0.60919-1.5814 1.2139-3.1646 1.8125-4.75 5.6435-14.024 13.791-26.556 27.043-34.34 11.993-5.0897 24.599-2.432 34.664 4.9336z" fill="#FDFDFD"/>
<path transform="translate(235.5 33.957)" d="m0 0c26.146 21.4 45.206 48.172 56.496 80.043 0.5124 1.4328 0.5124 1.4328 1.0352 2.8945 2.9194 8.8292 4.8371 17.926 6.8594 26.993 0.24363 1.0876 0.48727 2.1751 0.73828 3.2957 0.21543 0.9751 0.43087 1.9502 0.65283 2.9548 0.67726 2.8988 0.67726 2.8988 1.7373 5.7876 1.8991 5.975 2.1934 12.128 2.5161 18.355 0.04122 0.78178 0.08244 1.5636 0.12491 2.369 0.43069 8.6146 0.66482 17.225 0.71103 25.85 0.0045621 0.83775 0.0091242 1.6755 0.013824 2.5386 0.026881 14.063-1.0075 27.88-2.7013 41.836-0.16004 1.3389-0.16004 1.3389-0.3233 2.7048-2.0469 16.778-2.0469 16.778-4.7109 24.423-0.7492 2.2904-1.1785 4.5623-1.5908 6.9348-1.0661 5.6102-3.0073 10.749-5.0625 16.062-0.35965 0.99773-0.7193 1.9955-1.0898 3.0234-7.2719 19.832-17.823 39.173-31.91 54.977-0.73992 0.8482-1.4798 1.6964-2.2422 2.5703-2.2186 2.5103-4.4764 4.9765-6.7578 7.4297-0.68449 0.75023-1.369 1.5005-2.0742 2.2734-7.4193 7.817-16.475 14.532-25.926 19.727h-2v2c-0.70641 0.27973-1.4128 0.55945-2.1406 0.84766-2.8851 1.1627-5.7462 2.3741-8.6094 3.5898-27.169 11.23-57.519 11.84-85.25 1.5625-14.818-6.2868-28.467-14.746-40-26-0.88172-0.83145-1.7634-1.6629-2.6719-2.5195-18.458-17.807-32.447-40.445-41.531-64.391-0.72057-1.8897-1.5349-3.7431-2.3594-5.5898-2.8092-6.8397-4.6287-13.804-5.9102-21.078-0.62985-2.8927-1.5785-5.6185-2.5273-8.4219-5.0834-17.97-5.3291-36.438-5.2607-54.979 0.010717-3.4506 4.206e-5 -6.9007-0.012695-10.351-0.011345-16.697 0.39349-33.475 4.2734-49.795 0.35594-1.5832 0.71142-3.1666 1.0664-4.75 0.16516-0.72059 0.33032-1.4412 0.50049-2.1836 0.52306-2.3446 0.95111-4.7013 1.3706-7.0664 6.7941-33.622 24.11-64.684 47.062-89.875 0.68578-0.75797 1.3716-1.5159 2.0781-2.2969 9.4707-9.9482 20.834-17.365 32.922-23.703 1.0248-0.54527 2.0496-1.0905 3.1055-1.6523 38.335-19.094 85.847-11.975 119.4 13.609zm-122.5-7.957c-0.90105 0.43957-1.8021 0.87914-2.7305 1.332-7.2133 3.6931-13.182 8.3501-19.27 13.668-0.84562 0.72316-1.6912 1.4463-2.5625 2.1914-28.225 24.653-49.144 62.213-54.875 99.309-0.90085 5.664-1.9103 11.268-3.125 16.875-2.9512 14.787-3.6193 29.455-3.625 44.5-9.9701e-4 0.69543-0.001994 1.3909-0.0030212 2.1074 0.0024882 15.328 1.2774 30.227 3.8155 45.33 0.13061 0.78275 0.26122 1.5655 0.39578 2.372 3.4003 20.16 8.3008 39.732 16.979 58.316 0.32114 0.68917 0.64228 1.3783 0.97314 2.0884 8.6672 18.372 20.036 34.226 34.027 48.912 0.72832 0.79277 1.4566 1.5855 2.207 2.4023 12.11 12.784 28.65 23.369 45.793 27.598 2.9971 0.97984 5.9723 1.99 8.9375 3.0625 18.1 5.5407 42.529 3.4451 60.062-3.0625 0.72816-0.25701 1.4563-0.51401 2.2065-0.77881 10.514-3.755 19.72-8.7447 28.793-15.221 0.84562-0.60199 1.6912-1.204 2.5625-1.8242 13.197-10.006 24.341-22.394 33.438-36.176 0.58274-0.88027 0.58274-0.88027 1.1772-1.7783 9.5201-14.615 17.365-30.501 21.811-47.39 0.90711-3.4358 1.9561-6.7732 3.0742-10.145 10.894-35.626 12.356-76.914 6.9375-113.69-0.15598-1.1447-0.31195-2.2894-0.47266-3.4688-0.4603-3.1873-0.98511-6.3569-1.5273-9.5312-0.22969-1.4413-0.45882-2.8827-0.6875-4.3242-0.2492-1.5171-0.49919-3.034-0.75-4.5508-0.11013-0.70214-0.22027-1.4043-0.33374-2.1277-0.80039-4.6946-2.2991-8.6177-4.2288-12.997-0.79635-3.1277-1.4273-6.2613-2.0586-9.4258-6.1693-23.423-20.166-45.479-35.941-63.574-0.68062-0.825-1.3612-1.65-2.0625-2.5-16.95-19.941-45.328-36.965-71.676-39.359-5.1039-0.31741-10.211-0.36034-15.324-0.39062-1.0881-0.0093457-2.1763-0.018691-3.2974-0.02832-17.152 0.067254-33.374 4.5643-48.64 12.278z" fill="#222"/>
<path transform="translate(164.44 87.625)" d="m0 0c0.75354 0.011602 1.5071 0.023203 2.2834 0.035156 12.054 0.35611 19.645 6.2123 27.842 14.902 12.011 14.554 18.281 31.847 22.75 49.938 0.24259 0.97115 0.48517 1.9423 0.73511 2.9429 3.6273 15.563 4.2831 31.174 4.2131 47.097-0.010719 2.8911-3.311e-5 5.7815 0.012695 8.6726 0.026689 33.929-5.7719 69.354-27.273 96.787-0.5298 0.70512-1.0596 1.4102-1.6055 2.1367-4.9466 6.1685-12.335 12.614-20.395 13.863-12.659 1.0594-21.754-0.023138-31.898-8.3906-23.462-21.984-33.103-60.659-34.39-92.073-0.14642-5.6168-0.13384-11.23-0.086426-16.848 0.0046527-0.98607 0.0093054-1.9721 0.014099-2.9881 0.19201-34.735 4.8838-77.368 30.259-103.8 8.129-7.3282 16.397-12.489 27.539-12.27zm-19.438 10.375c-0.53109 0.37512-1.0622 0.75023-1.6094 1.1367-11.261 8.601-19.165 24.136-22.75 37.512-1.0313 3.7856-2.3436 7.4775-3.6055 11.191-5.6527 18.002-6.525 36.834-6.3713 55.579 0.023889 3.108 0.020486 6.2152 0.013916 9.3232 0.015129 10.934 0.4636 21.462 2.3223 32.258 0.14059 0.8959 0.28118 1.7918 0.42603 2.7148 3.701 22.837 12.277 50.979 30.894 66.18 2.1725 1.5134 4.3566 2.8383 6.6797 4.1055 1.6397 0.92812 1.6397 0.92812 3.3125 1.875 8.8003 2.6848 16.613 1.5914 24.875-2.2812 19.77-11.203 28.244-35.987 34.053-56.648 4.7137-18.285 5.9747-36.81 5.9468-55.633-2.7191e-4 -0.69705-5.4382e-4 -1.3941-8.2397e-4 -2.1123-0.019945-11.166-0.44811-22.156-2.1867-33.2-0.27457-1.7982-0.27457-1.7982-0.55469-3.6328-4.5164-25.37-12.651-54.397-34.445-70.367-10.9-7.2326-26.832-5.7881-37 2z" fill="#222"/>
<path transform="translate(36,286)" d="m0 0c3 1 3 1 3.948 2.7874 0.26853 0.77271 0.53706 1.5454 0.81372 2.3416 0.46503 1.2935 0.46503 1.2935 0.93945 2.613 0.32549 0.93078 0.65098 1.8616 0.98633 2.8206 3.4847 9.5367 7.4966 18.508 12.312 27.438 0.31937 0.60393 0.63873 1.2079 0.96777 1.8301 7.4655 14.052 17.123 25.698 28.032 37.17 0.65355 0.71801 1.3071 1.436 1.9805 2.1758 11.718 12.467 28.409 22.726 45.02 26.824 2.9971 0.97984 5.9723 1.99 8.9375 3.0625 18.1 5.5407 42.529 3.4451 60.062-3.0625 0.72816-0.25701 1.4563-0.51401 2.2065-0.77881 35.585-12.709 60.79-42.056 76.783-75.363 1.2608-2.665 2.5079-5.3357 3.7483-8.0103 5.8941-12.664 5.8941-12.664 8.2617-13.848-2.7071 27.279-23.606 52.888-42 72-0.97646 1.0712-0.97646 1.0712-1.9727 2.1641-7.0258 7.4883-16.041 13.904-25.027 18.836h-2v2c-0.70641 0.27973-1.4128 0.55945-2.1406 0.84766-2.8851 1.1627-5.7462 2.3741-8.6094 3.5898-27.169 11.23-57.519 11.84-85.25 1.5625-14.818-6.2868-28.467-14.746-40-26-0.88172-0.83145-1.7634-1.6629-2.6719-2.5195-18.429-17.778-32.511-40.437-41.52-64.379-0.76388-1.9853-1.6418-3.871-2.5586-5.7891-1.3787-3.6536-1.4871-6.4399-1.25-10.312z" fill="#1F1F1F"/>
<path transform="translate(294,131)" d="m0 0h2c2.195 6.9235 4.2902 13.864 6.1875 20.875 0.48533 1.7905 0.48533 1.7905 0.98047 3.6172 1.4735 6.212 2.0414 12.426 2.3711 18.789 0.04122 0.78178 0.08244 1.5636 0.12491 2.369 0.43069 8.6146 0.66482 17.225 0.71103 25.85 0.0068431 1.2566 0.0068431 1.2566 0.013824 2.5386 0.026881 14.063-1.0075 27.88-2.7013 41.836-0.16004 1.3389-0.16004 1.3389-0.3233 2.7048-2.0469 16.778-2.0469 16.778-4.7109 24.423-0.7492 2.2904-1.1791 4.5622-1.5908 6.9348-1.0405 5.5938-2.9926 10.777-5.0625 16.062l-2-2c-0.99 1.65-1.98 3.3-3 5-1-2-1-2 0.039062-5.1406 0.52643-1.3706 1.0553-2.7404 1.5859-4.1094 6.379-17.328 9.3404-35.456 11.375-53.75 0.096438-0.79366 0.19288-1.5873 0.29224-2.405 1.0118-9.3171 0.90495-18.673 0.89526-28.032 6.042e-5 -0.89168 1.2085e-4 -1.7834 1.8311e-4 -2.7021-0.012313-12.729-0.3291-25.248-2.1877-37.86-0.15598-1.1447-0.31195-2.2894-0.47266-3.4688-0.67308-4.6607-1.4814-9.2926-2.3203-13.926-0.13737-0.76288-0.27473-1.5258-0.41626-2.3118-0.27038-1.4916-0.54536-2.9824-0.82568-4.4722-0.66869-3.6535-1.1248-7.1054-0.96509-10.822z" fill="#414141"/>
<path transform="translate(218,166)" d="m0 0h1c0.22786 2.0508 0.45573 4.1016 0.68359 6.1523 0.13527 1.8591 0.13527 1.8591 1.3164 2.8477 0.96354 6.005 1.1603 11.884 1.168 17.957 0.0049926 1.4137 0.0049926 1.4137 0.010086 2.8559 0.0050418 1.991 0.0074092 3.982 0.0072479 5.973 0.0021632 2.9797 0.020284 5.9591 0.039307 8.9387 0.10163 34.069-5.5659 69.732-27.225 97.275-0.56461 0.72832-1.1292 1.4566-1.7109 2.207-3.6641 4.4682-7.7762 8.7129-13.289 10.793-2.2383-0.37891-2.2383-0.37891-4-1 2.3906-2.5899 4.8687-4.6285 7.75-6.625 21.173-15.802 28.825-48.264 32.594-72.926 1.522-11.644 1.8235-23.282 1.7812-35.012-5.5389e-4 -0.68951-0.0011078-1.379-0.0016785-2.0894-0.0091872-9.7919-0.22019-19.557-0.85526-29.331-0.36385-5.8258-0.36385-5.8258 0.73193-8.0173z" fill="#202020"/>
<path transform="translate(26,170)" d="m0 0h2c-0.0022206 0.59532-0.0044412 1.1906-0.0067291 1.804-0.022329 6.2631-0.037291 12.526-0.048203 18.789-0.0049919 2.3294-0.011788 4.6589-0.020508 6.9883-0.064282 17.628 0.52412 34.528 3.4946 51.922 0.39088 2.295 0.76877 4.592 1.1453 6.8894 1.7192 10.315 3.921 20.458 6.4355 30.607-0.99-0.33-1.98-0.66-3-1l-1 2c-1.7918-3.7394-3.1321-6.9256-3.5625-11.062-0.40741-3.6667-1.2487-6.4713-2.4375-9.9375-5.1394-18.168-5.3063-36.787-5.2058-55.528 0.018445-3.5604 0.020508-7.1205 0.020264-10.681 0.0049107-2.2962 0.010737-4.5925 0.017578-6.8887 0.0011128-1.0481 0.0022256-2.0962 0.0033722-3.176 0.10607-16.609 0.10607-16.609 2.1646-20.726z" fill="#282828"/>
<path transform="translate(175.55 88.395)" d="m0 0c14.753 4.7245 24.753 20.613 31.453 33.605 4.8074 9.9434 7.804 20.364 10.438 31.062 0.25934 1.0466 0.51869 2.0931 0.78589 3.1714 1.4143 6.0765 2.0427 11.529 1.7766 17.766h-1l-1-6-2 2c-0.13535-0.80438-0.2707-1.6088-0.41016-2.4375-4.8083-26.258-12.432-55.721-35.461-71.875-7.5742-4.2522-16.739-3.0133-25.129-2.6875 3.7368-2.4912 5.7445-2.2065 10.188-2.125 1.2723 0.018047 2.5446 0.036094 3.8555 0.054688 1.4637 0.034805 1.4637 0.034805 2.957 0.070312v-2l-19 1c5.851-3.9006 15.68-2.6691 22.547-1.6055z" fill="#1D1D1D"/>
<path transform="translate(52,83)" d="m0 0 4 2c-0.32162 0.63164-0.64324 1.2633-0.97461 1.9141-10.259 20.313-18.678 40.385-21.722 63.044-0.49876 3.3588-1.2231 6.6579-1.9282 9.9795-1.2373 6.0115-2.0058 11.938-2.375 18.062h-1v-8h-2c-0.2092-6.0948 0.51798-11.444 1.875-17.375 0.37421-1.6926 0.74791-3.3853 1.1211-5.0781 0.17773-0.796 0.35546-1.592 0.53857-2.4121 0.52547-2.4107 0.97146-4.8307 1.4028-7.2598 3.9202-19.4 11.948-37.414 21.062-54.875z" fill="#1C1C1C"/>
<path transform="translate(248,361)" d="m0 0c0 3 0 3-1.5312 4.7188l-3.9375 3.5625c-1.8639 1.7084-1.8639 1.7084-1.5312 4.7188-2.1945 1.8055-4.3456 3.4091-6.6875 5-0.93876 0.65742-0.93876 0.65742-1.8965 1.3281-9.5958 6.6719-9.5958 6.6719-12.416 6.6719v2c-0.70641 0.27973-1.4128 0.55945-2.1406 0.84766-2.8851 1.1627-5.7462 2.3741-8.6094 3.5898-9.4522 3.9144-18.066 6.2245-28.25 7.5625v-2h-24v-1c0.62753-0.0041089 1.2551-0.0082178 1.9016-0.012451 32.989-0.37559 62.459-10.366 86.223-33.988 0.96372-0.99481 1.9244-1.9927 2.875-3z" fill="#1E1E1E"/>
<path transform="translate(294,131)" d="m0 0h2c2.195 6.9235 4.2902 13.864 6.1875 20.875 0.48533 1.7905 0.48533 1.7905 0.98047 3.6172 1.4739 6.2139 1.951 12.064 1.8945 18.445-0.0045117 0.68385-0.0090234 1.3677-0.013672 2.0723-0.011633 1.6635-0.029561 3.3269-0.048828 4.9902h-1v-9h-2c0.10719 0.83108 0.10719 0.83108 0.21655 1.679 1.1038 9.9825 0.89283 19.981 0.84595 30.009-0.0050251 1.877-0.0095862 3.7539-0.013672 5.6309-0.010926 4.5606-0.028135 9.1211-0.048828 13.682h-1c-0.019819-1.0161-0.039639-2.0322-0.060059-3.0791-0.48521-24.06-1.4341-47.573-5.7329-71.315-0.20605-1.1443-0.20605-1.1443-0.41626-2.3118-0.27038-1.4916-0.54536-2.9824-0.82568-4.4722-0.66869-3.6535-1.1248-7.1054-0.96509-10.822z" fill="#202020"/>
<path transform="translate(28,234)" d="m0 0h1c0.16081 1.0015 0.32162 2.003 0.4873 3.0349 0.61266 3.8051 1.2335 7.6087 1.8564 11.412 0.26581 1.6295 0.52957 3.2594 0.79102 4.8896 1.8226 11.352 4.0813 22.507 6.8652 33.663-0.99-0.33-1.98-0.66-3-1l-1 2c-1.7918-3.7394-3.1321-6.9256-3.5625-11.062-0.40781-3.6703-1.249-6.4671-2.4375-9.9375-2.3925-8.4504-3.427-16.222-3-25h2v-8z" fill="#515151"/>
<path transform="translate(302,172)" d="m0 0h2c2.1568 9.7129 2.3086 19.224 2.2607 29.116-0.010666 2.6151-8.058e-5 5.2296 0.012695 7.8447 0.0092849 10.354-0.075771 20.876-2.2734 31.039l-2 1v-69z" fill="#242424"/>
<path transform="translate(136,396)" d="m0 0c2.1877 0.14261 4.3752 0.28924 6.5625 0.4375 1.2182 0.081211 2.4363 0.16242 3.6914 0.24609 2.3189 0.19586 4.6345 0.45577 6.9336 0.81641 5.4047 0.70881 10.806 0.86541 16.25 1.0625 1.1131 0.043184 2.2262 0.086367 3.373 0.13086 2.7297 0.10544 5.4595 0.20756 8.1895 0.30664v2c-12.218 3.4142-33.571 2.7145-45-3v-2z" fill="#0B0B0B"/>
<path transform="translate(218,166)" d="m0 0h1c1.7381 13.62 2.2547 26.967 2.125 40.688-0.010069 1.8887-0.019188 3.7773-0.027344 5.666-0.021655 4.549-0.055956 9.0977-0.097656 13.646l-2 1c-0.025056-1.0412-0.050112-2.0823-0.075928-3.155-0.11748-4.8442-0.23903-9.6884-0.36157-14.532-0.021733-0.86653-0.043466-1.7331-0.065857-2.6259-0.27869-10.999-0.59497-21.988-1.2796-32.971-0.31931-5.5115-0.31931-5.5115 0.78296-7.7161z"/>
<path transform="translate(268,339)" d="m0 0 1 3c-1.4844 2.4961-1.4844 2.4961-3.75 5.4375-0.40323 0.52352-0.80647 1.047-1.2219 1.5864-6.4041 8.1737-13.591 15.74-21.028 22.976-0.99-0.33-1.98-0.66-3-1 0.81404-0.77924 0.81404-0.77924 1.6445-1.5742 0.71543-0.69738 1.4309-1.3948 2.168-2.1133 0.7077-0.68449 1.4154-1.369 2.1445-2.0742 2.0841-2.2833 3.4739-4.5846 5.043-7.2383 1.257-1.4884 2.55-2.9469 3.875-4.375 2.4898-2.736 4.7903-5.4442 6.875-8.5 1.9523-2.7115 3.4573-4.3666 6.25-6.125z" fill="#181818"/>
<path transform="translate(283,101)" d="m0 0c2 0 2 0 3.8906 1.8398 2.8803 4.3151 4.2907 8.8044 5.8594 13.723 0.31582 0.94553 0.63164 1.8911 0.95703 2.8652 1.3422 4.1107 2.293 7.2007 2.293 11.572h-2l-1 4c-0.31453-1.2555-0.62906-2.5111-0.95312-3.8047-2.9508-11.814-2.9508-11.814-7.25-23.188-0.91536-2.3064-1.3718-4.5678-1.7969-7.0078z" fill="#222"/>
<path transform="translate(211,140)" d="m0 0h3c1.0173 3.9749 2.0106 7.9555 3 11.938 0.42926 1.6755 0.42926 1.6755 0.86719 3.3848 1.5796 6.4123 2.4689 12.075 2.1328 18.678h-1l-1-6-2 2c-0.19336-0.99-0.38672-1.98-0.58594-3-0.2626-1.3334-0.52565-2.6667-0.78906-4-0.13575-0.689-0.27151-1.378-0.41138-2.0879-0.69936-3.5038-1.4512-6.9679-2.4011-10.412-0.86285-3.7169-0.97037-6.7112-0.8125-10.5z" fill="#1D1D1D"/>
<path transform="translate(72,57)" d="m0 0 1 3c-1.6084 2.498-3.2441 4.7881-5.0625 7.125-1.0238 1.3477-2.046 2.6966-3.0664 4.0469-0.49645 0.6542-0.9929 1.3084-1.5044 1.9824-2.218 2.9954-4.1982 6.1324-6.1479 9.3066-1.2188 1.5391-1.2188 1.5391-4.2188 2.5391 1.3219-9.4225 9.7945-20.872 17.207-26.75 0.59168-0.4125 1.1834-0.825 1.793-1.25z" fill="#1B1B1B"/>
<path transform="translate(302,155)" d="m0 0c3.1076 6.2152 3.1233 12.072 3.0625 18.938-0.0067676 1.0258-0.0067676 1.0258-0.013672 2.0723-0.011633 1.6635-0.029561 3.3269-0.048828 4.9902h-1v-9h-2c0.071462 0.55406 0.14292 1.1081 0.21655 1.679 1.1038 9.9825 0.89283 19.981 0.84595 30.009-0.0050251 1.877-0.0095862 3.7539-0.013672 5.6309-0.010926 4.5606-0.028135 9.1211-0.048828 13.682h-1c-0.019819-0.99516-0.039639-1.9903-0.060059-3.0156-0.39845-19.398-0.97221-38.67-2.9399-57.984 2 2 2 2 2.125 5.125l-0.125 2.875h2l-1-15z" fill="#7F7F7F"/>
<path transform="translate(52,83)" d="m0 0 4 2-11 23h-2l-1 2h-2c1.9683-6.5385 4.5595-12.501 7.6875-18.562 0.41572-0.81791 0.83145-1.6358 1.2598-2.4785 1.0121-1.9892 2.0297-3.9754 3.0527-5.959z" fill="#1C1C1C"/>
<path transform="translate(36,286)" d="m0 0c3 1 3 1 4.075 3.0095 0.31945 0.86182 0.63889 1.7236 0.96802 2.6116 0.35127 0.93521 0.70254 1.8704 1.0645 2.834 0.35643 0.9842 0.71285 1.9684 1.0801 2.9824 0.36803 0.98033 0.73605 1.9607 1.1152 2.9707 2.6973 7.2711 2.6973 7.2711 2.6973 9.5918h-2l-1 3c-0.32613-0.85723-0.65227-1.7145-0.98828-2.5977-0.43699-1.1434-0.87398-2.2868-1.3242-3.4648-0.45375-1.1898-0.9075-2.3796-1.375-3.6055-0.96915-2.4604-1.9864-4.8257-3.125-7.207-1.3521-3.5582-1.4186-6.3498-1.1875-10.125z" fill="#1A1A1A"/>
<path transform="translate(302,172)" d="m0 0h2c1.3246 9.0008 1.1108 17.989 1.0625 27.062-0.0050242 1.6452-0.0095855 3.2904-0.013672 4.9355-0.010935 4.0007-0.028149 8.0013-0.048828 12.002l-2 1-1-45z" fill="#050505"/>
<path transform="translate(164.88 88.938)" d="m0 0c1.0325 0.0067676 1.0325 0.0067676 2.0859 0.013672 1.6797 0.011665 3.3594 0.029595 5.0391 0.048828v2c-1.3071 0.0038672-1.3071 0.0038672-2.6406 0.0078125-10.808 0.35089-18.85 3.3209-27.359 9.9922 0-3.2905 0.14241-4.3348 2-7 6.8077-4.5821 12.722-5.1652 20.875-5.0625z" fill="#232323"/>
<path transform="translate(130,17)" d="m0 0 3 2c-1.1602 0.36352-1.1602 0.36352-2.3438 0.73438-6.207 1.9973-11.875 4.2679-17.656 7.2656h-2v-4c2.4103-1.2022 4.8268-2.3867 7.25-3.5625 0.68191-0.34225 1.3638-0.68449 2.0664-1.0371 5.8359-2.8046 5.8359-2.8046 9.6836-1.4004z" fill="#262626"/>
<path transform="translate(28,234)" d="m0 0h1c0.53373 3.248 1.0497 6.4986 1.5625 9.75 0.15146 0.92039 0.30293 1.8408 0.45898 2.7891 0.13857 0.88945 0.27715 1.7789 0.41992 2.6953 0.13092 0.81694 0.26184 1.6339 0.39673 2.4756 0.16618 2.3511-0.13554 4.0543-0.83813 6.29l-1-7h-2l1 11c-3.1109-4.6663-3.1231-8.7965-3.0625-14.312 0.0090234-1.0686 0.018047-2.1373 0.027344-3.2383 0.011602-0.80824 0.023203-1.6165 0.035156-2.4492h2v-8z" fill="#5F5F5F"/>
<path transform="translate(220,175)" d="m0 0h1c0.90239 6.1546 1.1465 12.128 1.1328 18.344 9.5673e-4 0.96853 0.0019134 1.9371 0.0028992 2.9349 6.7711e-4 2.0372-0.0011443 4.0743-0.0053406 6.1115-0.0053549 3.1005-3.898e-5 6.2008 0.0063477 9.3013-6.6086e-4 1.9883-0.0019422 3.9766-0.0039062 5.9648 0.0020242 0.91793 0.0040485 1.8359 0.006134 2.7816-0.019024 5.2777-0.37311 10.339-1.1389 15.562h-1l-1-7h-1v-8h1l1 5v-51z" fill="#222"/>
<path transform="translate(274,83)" d="m0 0c2.8092 0.59142 4.5351 1.319 6.1787 3.7266 1.1515 2.227 2.1896 4.4774 3.1963 6.7734 0.36738 0.78504 0.73477 1.5701 1.1133 2.3789 1.9407 4.2696 1.9407 4.2696 2.5117 6.1211l-1 2-1-3h-3c-1.3382-2.6226-2.6707-5.2479-4-7.875-0.38156-0.74637-0.76312-1.4927-1.1562-2.2617-0.36094-0.71543-0.72188-1.4309-1.0938-2.168-0.33516-0.65984-0.67031-1.3197-1.0156-1.9995-0.73438-1.6958-0.73438-1.6958-0.73438-3.6958z" fill="#242424"/>
<path transform="translate(206,280)" d="m0 0 0.4375 1.8125c0.44974 1.749 0.99142 3.4743 1.5625 5.1875-1.293 3.0664-1.293 3.0664-3.1875 6.5625-0.6123 1.1563-1.2246 2.3126-1.8555 3.5039-1.9199 2.878-2.7806 3.8222-5.957 4.9336l-2 1c1.7108-4.5592 3.8675-8.8486 6.0625-13.188 0.36416-0.72381 0.72832-1.4476 1.1035-2.1934 0.94303-1.8739 1.8884-3.7466 2.834-5.6191l1-2z" fill="#262626"/>
<path transform="translate(278,323)" d="m0 0c0.55269 4.8111-1.3142 7.8878-3.8125 11.812-0.35643 0.59748-0.71285 1.195-1.0801 1.8105-1.0645 1.709-1.0645 1.709-3.1074 4.377h-3l-2 1c1.5239-4.2225 3.6433-7.9503 6-11.75 0.35578-0.5891 0.71156-1.1782 1.0781-1.7852 3.3668-5.4648 3.3668-5.4648 5.9219-5.4648z" fill="#181818"/>
<path transform="translate(149,12)" d="m0 0-1 3c-6.0903 2.3343-12.501 3.4431-19 3 5.3237-6.3885 12.276-6.3153 20-6z" fill="#212121"/>
<path transform="translate(122,391)" d="m0 0c6.8834 0.58127 12.842 1.6844 19 5h-5v2c-4.8363-0.99044-9.4762-1.957-14-4v-3z" fill="#2E2E2E"/>
<path transform="translate(120,129)" d="m0 0h3c-0.75715 7.1172-2.6843 13.641-6 20v-7l-2 1c0.45143-1.7726 0.91141-3.543 1.375-5.3125 0.25523-0.98613 0.51047-1.9723 0.77344-2.9883 0.85156-2.6992 0.85156-2.6992 2.8516-5.6992z" fill="#313131"/>
<path transform="translate(43,107)" d="m0 0c1.2377 3.7131 0.57925 4.9456-0.75 8.5625-0.34547 0.97066-0.69094 1.9413-1.0469 2.9414-1.2031 2.4961-1.2031 2.4961-4.2031 4.4961-1.0081 2.179-1.0081 2.179-1.6875 4.625-0.25137 0.81727-0.50273 1.6345-0.76172 2.4766-0.18176 0.62648-0.36352 1.253-0.55078 1.8984-1.5632-4.7921 0.088704-8.1189 1.75-12.688 0.26555-0.78439 0.53109-1.5688 0.80469-2.377 0.26555-0.74572 0.53109-1.4914 0.80469-2.2598 0.24202-0.68151 0.48404-1.363 0.7334-2.0652 0.90723-1.6106 0.90723-1.6106 3.9072-2.6106l1-3z" fill="#353535"/>
<path transform="translate(258,353)" d="m0 0c0 3.6177-0.63459 4.0845-3 6.6875-0.94553 1.0422-0.94553 1.0422-1.9102 2.1055-3.2914 3.4759-6.6653 6.8626-10.09 10.207-0.99-0.33-1.98-0.66-3-1 0.5543-0.53109 1.1086-1.0622 1.6797-1.6094 0.72445-0.70641 1.4489-1.4128 2.1953-2.1406 0.7193-0.69609 1.4386-1.3922 2.1797-2.1094 1.8242-2.0073 2.7702-3.734 3.9453-6.1406 1.6363-1.0489 3.3049-2.0491 5-3 1.7515-1.5825 1.7515-1.5825 3-3z" fill="#0F0F0F"/>
<path transform="translate(301,226)" d="m0 0h1c0.060586 0.98742 0.12117 1.9748 0.18359 2.9922 0.083789 1.2813 0.16758 2.5627 0.25391 3.8828 0.081211 1.2762 0.16242 2.5523 0.24609 3.8672 0.10847 3.1408 0.10847 3.1408 1.3164 5.2578-0.1678 2.6957-0.61156 5.3241-1 8l-2-1-2 8c-0.99835-3.9934-0.91632-6.2696-0.44141-10.297 0.13857-1.2053 0.27715-2.4105 0.41992-3.6523 0.15146-1.2543 0.30293-2.5085 0.45898-3.8008 0.1476-1.2697 0.2952-2.5395 0.44727-3.8477 0.36535-3.1349 0.73733-6.2689 1.1152-9.4023z" fill="#4C4C4C"/>
<path transform="translate(164.38 87.75)" d="m0 0c0.75539-0.0077344 1.5108-0.015469 2.2891-0.023438 4.2281 0.014784 7.4776 0.33658 11.336 2.2734l-2 1v2h-21c3.7368-2.4912 5.7445-2.2065 10.188-2.125 1.2723 0.018047 2.5446 0.036094 3.8555 0.054688 1.4637 0.034805 1.4637 0.034805 2.957 0.070312v-2l-19 1c3.8225-2.5483 6.95-2.2948 11.375-2.25z" fill="#585858"/>
<path transform="translate(181,11)" d="m0 0v2h-21v-2c6.6668-1.9719 14.271-1.455 21 0z" fill="#0A0A0A"/>
<path transform="translate(136,396)" d="m0 0c14.781 0.96355 14.781 0.96355 21 2v1h-7l-1 2c-1.7923-0.30871-3.5838-0.62209-5.375-0.9375-0.99773-0.17402-1.9955-0.34805-3.0234-0.52734-2.6016-0.53516-2.6016-0.53516-4.6016-1.5352v-2z" fill="#161616"/>
<path transform="translate(152,319)" d="m0 0c1.2104 0.24557 1.2104 0.24557 2.4453 0.49609 4.1824 0.59289 8.2141 0.61285 12.43 0.56641 1.1756-0.0067676 1.1756-0.0067676 2.375-0.013672 1.9167-0.011687 3.8334-0.029619 5.75-0.048828v2c-3.5988 1.1996-6.5814 1.1689-10.375 1.1875-1.3071 0.01418-2.6142 0.028359-3.9609 0.042969-3.4021-0.21399-5.6309-0.74902-8.6641-2.2305v-2z" fill="#040404"/>
<path transform="translate(207,129)" d="m0 0h3c0.50615 1.2684 1.0047 2.5398 1.5 3.8125 0.41766 1.0615 0.41766 1.0615 0.84375 2.1445 0.65625 2.043 0.65625 2.043 0.65625 5.043h-2l-1 4c-1.9052-5.1033-3.4259-9.4634-3-15z" fill="#2B2B2B"/>
<path transform="translate(219,228)" d="m0 0h1c0.080972 2.4382 0.14047 4.8736 0.1875 7.3125 0.037705 1.0354 0.037705 1.0354 0.076172 2.0918 0.074401 5.1337 0.074401 5.1337-1.7129 7.5762-1.5508 1.0195-1.5508 1.0195-2.5508 1.0195 0.42955-6.2511 1.014-12.042 3-18z" fill="#0D0D0D"/>
<path transform="translate(187,13)" d="m0 0c5.2732 0.44529 10.018 1.0837 15 3l-1 3-15-3 1-3z" fill="#101010"/>
<path transform="translate(38,121)" d="m0 0c1.0806 3.2419 0.96405 3.8971 0.0039062 7.0117-0.34321 1.136-0.34321 1.136-0.69336 2.2949-0.24686 0.78568-0.49371 1.5714-0.74805 2.3809-0.24299 0.79729-0.48598 1.5946-0.73633 2.416-0.60097 1.9679-1.2126 3.9325-1.8262 5.8965h-2c0.41085-6.3682 1.2109-15.211 6-20z" fill="#080808"/>
<path transform="translate(125,117)" d="m0 0h3c0.61529 5.0761-1.3834 7.8298-4 12h-4c1.3106-4.2343 2.9436-8.0741 5-12z" fill="#262626"/>
<path transform="translate(248,361)" d="m0 0c0 3 0 3-1.5312 4.7188l-3.9375 3.5625c-1.8639 1.7084-1.8639 1.7084-1.5312 4.7188-3 2.1875-3 2.1875-6 4l-1-4c0.84305-0.77086 1.6861-1.5417 2.5547-2.3359 1.1068-1.013 2.2136-2.026 3.3203-3.0391 0.55559-0.50789 1.1112-1.0158 1.6836-1.5391 2.1815-1.9975 4.3496-3.9941 6.4414-6.0859z" fill="#323232"/>
<path transform="translate(25,221)" d="m0 0h2c0.74806 7.0264 1.1379 13.934 1 21h-2c-1.1009-7.0181-1.0973-13.906-1-21z" fill="#030303"/>
<path transform="translate(218,166)" d="m0 0h1c2.4875 16.479 2.4875 16.479-1 23-0.19636-3.4579-0.38058-6.9163-0.5625-10.375-0.056074-0.98484-0.11215-1.9697-0.16992-2.9844-0.07251-1.4115-0.07251-1.4115-0.14648-2.8516-0.047131-0.86931-0.094263-1.7386-0.14282-2.6343 0.021729-2.1548 0.021729-2.1548 1.0217-4.1548z" fill="#090909"/>
<path transform="translate(61,72)" d="m0 0c1 3 1 3-0.10938 5.2266-0.81211 1.1872-0.81211 1.1872-1.6406 2.3984-0.79664 1.195-0.79664 1.195-1.6094 2.4141-1.6406 1.9609-1.6406 1.9609-4.6406 2.9609 0.7135-4.9945 2.2547-8.5539 6.1875-11.812l1.8125-1.1875z" fill="#121212"/>
<path transform="translate(301,248)" d="m0 0h1c0.25287 6.0689-0.30167 11.162-2 17h-2c-0.34549-6.3339 0.70657-11.103 3-17z" fill="#0C0C0C"/>
<path transform="translate(164.62 88.938)" d="m0 0c1.0596 0.0067676 1.0596 0.0067676 2.1406 0.013672 1.7448 0.011789 3.4896 0.029725 5.2344 0.048828v2c-1.4115 0.090879-1.4115 0.090879-2.8516 0.18359-1.2452 0.083789-2.4905 0.16758-3.7734 0.25391-1.2298 0.081211-2.4595 0.16242-3.7266 0.24609-3.2638 0.28305-6.4279 0.7268-9.6484 1.3164 4.0087-4.191 6.9979-4.13 12.625-4.0625z" fill="#020202"/>
<path transform="translate(292,281)" d="m0 0c0.96862 3.3793 0.92663 4.9761-0.4375 8.25-0.28746 0.70641-0.57492 1.4128-0.87109 2.1406-0.22816 0.53109-0.45633 1.0622-0.69141 1.6094 2.3308-0.95866 2.3308-0.95866 4-4-0.54724 3.3746-1.0549 5.0824-3 8l-1-2-3 5c-1-2-1-2-0.56274-3.7876 0.2566-0.70173 0.51321-1.4035 0.77759-2.1265 0.41089-1.1408 0.41089-1.1408 0.83008-2.3047 0.29455-0.79406 0.5891-1.5881 0.89258-2.4062 0.29068-0.8018 0.58137-1.6036 0.88086-2.4297 0.72047-1.9842 1.4502-3.9651 2.1816-5.9453z" fill="#777"/>
<path transform="translate(28,251)" d="m0 0h2c1.748 5.2439 2.1939 9.4732 2 15h-2c-1.4667-5.2251-2.2258-9.5814-2-15z" fill="#0D0D0D"/>
<path transform="translate(32,133)" d="m0 0c0.87841 3.0972 0.99435 4.9065 0 8h2l1-3-0.4375 2.5c-0.61503 3.8269-1.0981 7.6522-1.5625 11.5h-1l-0.4375-2.25c-0.48379-2.621-0.48379-2.621-1.1562-4.5938-0.51208-2.718-0.070495-4.7161 0.53125-7.4062 0.19465-0.89203 0.3893-1.7841 0.58984-2.7031 0.15598-0.67547 0.31195-1.3509 0.47266-2.0469z" fill="#4A4A4A"/>
<path transform="translate(26,170)" d="m0 0h2v17h-1l-1-6h-1c-0.027004-1.4582-0.046398-2.9166-0.0625-4.375-0.011602-0.81211-0.023203-1.6242-0.035156-2.4609 0.097656-2.1641 0.097656-2.1641 1.0977-4.1641z" fill="#1F1F1F"/>
<path transform="translate(295,278)" d="m0 0c1.1994 3.4765 0.80128 5.6987-0.25 9.1875-0.37898 1.3206-0.37898 1.3206-0.76562 2.668-0.32484 0.7077-0.64969 1.4154-0.98438 2.1445-0.99 0.33-1.98 0.66-3 1 0.5752-4.6016 1.5821-11.582 5-15z" fill="#090909"/>
<path transform="translate(185,398)" d="m0 0-2 1 1 2h-3v-2h-24v-1c3.9162-0.19706 7.833-0.38099 11.75-0.5625 1.1112-0.056074 2.2223-0.11215 3.3672-0.16992 1.0699-0.04834 2.1398-0.09668 3.2422-0.14648 0.98452-0.047131 1.969-0.094263 2.9834-0.14282 2.4279 0.019853 4.3488 0.31054 6.6572 1.0217z" fill="#4B4B4B"/>
<path transform="translate(43,301)" d="m0 0c2.503 2.9383 3.4693 5.179 4 9h-2l-1 3c-0.697-1.4538-1.3823-2.9132-2.0625-4.375-0.38285-0.81211-0.7657-1.6242-1.1602-2.4609-0.25652-0.71414-0.51305-1.4283-0.77734-2.1641l1-2 2 1v-2z" fill="#2E2E2E"/>
<path transform="translate(117,265)" d="m0 0c2.463 2.463 2.7677 4.2736 3.625 7.625 0.26039 1.0029 0.52078 2.0058 0.78906 3.0391 0.19336 0.77086 0.38672 1.5417 0.58594 2.3359l-2-1v-2c-0.99 0.33-1.98 0.66-3 1-1.2857-7.4286-1.2857-7.4286 0-11z" fill="#2E2E2E"/>
<path transform="translate(181,11)" d="m0 0 8 1c-1 1.5-1 1.5-3 3-5.1503 0.34335-9.9228-0.1538-15-1v-1h10v-2z" fill="#262626"/>
<path transform="translate(290,294)" d="m0 0h1c-0.875 7.625-0.875 7.625-2 11h-4c0.45082-1.4607 0.91094-2.9185 1.375-4.375 0.25523-0.81211 0.51047-1.6242 0.77344-2.4609 0.85156-2.1641 0.85156-2.1641 2.8516-4.1641z" fill="#1B1B1B"/>
<path transform="translate(147,96)" d="m0 0 2 1-14 14c0-4.6015 2.8977-6.8069 6-10 1.9466-1.7581 3.9354-3.3778 6-5z" fill="#CFCFCF"/>
<path transform="translate(218,384)" d="m0 0 2 1-2 2 2 2c-2.906 1.2566-4.796 2-8 2-2.1875-1-2.1875-1-4-2 1.6199-0.86376 3.2461-1.7158 4.875-2.5625 0.90492-0.47566 1.8098-0.95133 2.7422-1.4414 1.1795-0.49307 1.1795-0.49307 2.3828-0.99609z" fill="#3E3E3E"/>
<path transform="translate(286,304)" d="m0 0 2 1c-0.99 3.3-1.98 6.6-3 10l-2-3-2 1c1.0907-3.7755 1.9083-6.4704 5-9z" fill="#303030"/>
<path transform="translate(32,277)" d="m0 0c2 2 2 2 2 5h2l1-4 2 9c-0.99-0.33-1.98-0.66-3-1l-1 2c-3-6.5-3-6.5-3-11z" fill="#565656"/>
<path transform="translate(96,32)" d="m0 0 2 1-1.3125 1.1875c-1.8162 1.8185-1.8162 1.8185-3.1875 4.375-1.5 2.4375-1.5 2.4375-4.5 4.4375l-1-4 8-7z" fill="#2D2D2D"/>
<path transform="translate(32,271)" d="m0 0h2v3h2v8h-2c-1.8023-3.8299-2.1962-6.7812-2-11z" fill="#171717"/>
<path transform="translate(221,218)" d="m0 0h1c0.11269 6.1105-0.10396 11.952-1 18h-1l-1-7h-1v-8h1l1 5 1-8z" fill="#2D2D2D"/>
<path transform="translate(294,131)" d="m0 0h2c1.8023 3.8299 2.1962 6.7812 2 11h-2c-1.4226-3.8232-2.2404-6.9128-2-11z" fill="#0F0F0F"/>
<path transform="translate(132,109)" d="m0 0c1 3 1 3 0.22266 4.8242-1.0742 1.7253-2.1484 3.4505-3.2227 5.1758-0.99-0.33-1.98-0.66-3-1 0.47202-4.2482 2.9666-6.1999 6-9z" fill="#1B1B1B"/>
<path transform="translate(183,314)" d="m0 0 2 1c-0.25 1.875-0.25 1.875-1 4-1.8125 1.3125-1.8125 1.3125-4 2-2.25-0.375-2.25-0.375-4-1 2.2574-2.3352 4.2806-4.1871 7-6z" fill="#202020"/>
<path transform="translate(300,158)" d="m0 0h2c1.2624 2.5248 1.0986 4.312 1.0625 7.125-0.0090234 0.91008-0.018047 1.8202-0.027344 2.7578-0.011602 0.69867-0.023203 1.3973-0.035156 2.1172h-2l-1-12z" fill="#0A0A0A"/>
<path transform="translate(298,140)" d="m0 0c1.4606 2.6474 2 3.8945 2 7h-2v6h-1l-1-11h2v-2z" fill="#3C3C3C"/>
<path transform="translate(294,124)" d="m0 0c2 3 2 3 2 7h-2l-1 4c-2.4286-6.2857-2.4286-6.2857-1-10l1 2 1-3z" fill="#525252"/>
<path transform="translate(117,141)" d="m0 0c1.3294 3.9882 0.43804 6.1173-1 10-0.99 0.33-1.98 0.66-3 1 0.28242-1.4602 0.57627-2.9181 0.875-4.375 0.16242-0.81211 0.32484-1.6242 0.49219-2.4609 0.63281-2.1641 0.63281-2.1641 2.6328-4.1641z" fill="#060606"/>
<path transform="translate(137,103)" d="m0 0 1 3c-1.6234 1.7088-3.2932 3.3745-5 5h-2l-2 1c0.99783-3.3563 1.6186-4.7395 4.5625-6.75l2.4375-1.25 1-1z" fill="#282828"/>
<path transform="translate(202,17)" d="m0 0c2.0072 0.28674 4.0086 0.61867 6 1v4c-3.63-0.99-7.26-1.98-11-3l4-1 1-1z" fill="#2E2E2E"/>
<path transform="translate(212,389)" d="m0 0v3c-6.625 3.125-6.625 3.125-10 2 6.2857-4.4286 6.2857-4.4286 10-5z" fill="#070707"/>
<path transform="translate(269,334)" d="m0 0h3c-0.75 4.75-0.75 4.75-3 7h-2l-2 1c1.1245-2.9719 2.2229-5.3344 4-8z" fill="#222"/>
<path transform="translate(299,162)" d="m0 0c2 2 2 2 2.125 5.125l-0.125 2.875c0.99-0.33 1.98-0.66 3-1v3h-2v6h-1l-2-16z" fill="#4C4C4C"/>
<path transform="translate(208,391)" d="m0 0-2.5 1.375-2.5 1.625v2h-2v-2c-2.31 0.33-4.62 0.66-7 1 2.6265-1.751 4.6181-2.6931 7.5625-3.6875 0.78504-0.27199 1.5701-0.54398 2.3789-0.82422 2.0586-0.48828 2.0586-0.48828 4.0586 0.51172z" fill="#4B4B4B"/>
<path transform="translate(210,275)" d="m0 0c0.6875 1.625 0.6875 1.625 1 4-1.4375 3.25-1.4375 3.25-3 6l-2-1c1.0588-3.4031 2.009-6.0135 4-9z" fill="#070707"/>
<path transform="translate(297,259)" d="m0 0h1v6h2l1-3-1 9-2-4-2 1 1-9z" fill="#686868"/>
<path transform="translate(116,150)" d="m0 0c1.6003 3.2006 0.031737 5.7227-1 9-1.5-1.25-1.5-1.25-3-3v-4l4-2z" fill="#272727"/>
<path transform="translate(135.75,13.75)" d="m0 0c0.7425 0.0825 1.485 0.165 2.25 0.25v2c-3.135 1.8578-5.3747 2.2014-9 2 3.3231-3.9385 3.3231-3.9385 6.75-4.25z" fill="#0C0C0C"/>
<path transform="translate(118,275)" d="m0 0h2c2.1519 3.2279 2.2009 4.284 2 8l-2 1-2-9z" fill="#0C0C0C"/>
<path transform="translate(115,260)" d="m0 0 2 1v8h-2c-1.125-6.75-1.125-6.75 0-9z" fill="#0B0B0B"/>
<path transform="translate(27,158)" d="m0 0c1.5 1.125 1.5 1.125 3 3 0.1875 3.1875 0.1875 3.1875 0 6l-2-3-1 6h-1c-0.14286-8.5714-0.14286-8.5714 1-12z" fill="#444"/>
<path transform="translate(188.19 396.81)" d="m0 0 2.8125 0.1875v2l-9 1c3-3 3-3 6.1875-3.1875z" fill="#040404"/>
<path transform="translate(136,396)" d="m0 0h7l1 3c-5.75 0.125-5.75 0.125-8-1v-2z" fill="#0A0A0A"/>
<path transform="translate(36,286)" d="m0 0c0.99 0.33 1.98 0.66 3 1l1 5-4-1v-5z" fill="#191919"/>
<path transform="translate(32,146)" d="m0 0v10c-3.375-4.5-3.375-4.5-3-9 2-1 2-1 3-1z" fill="#2A2A2A"/>
<path transform="translate(43,101)" d="m0 0 2 4c-1 3-1 3-5 5l3-9z" fill="#3F3F3F"/>
<path transform="translate(232,375)" d="m0 0h3c-0.3125 1.875-0.3125 1.875-1 4l-3 2c-0.625-1.875-0.625-1.875-1-4l2-2z" fill="#272727"/>
<path transform="translate(298,147)" d="m0 0c0.99 0.33 1.98 0.66 3 1l-0.4375 1.6875c-0.59019 2.4263-1.0859 4.8616-1.5625 7.3125h-1v-10z" fill="#2A2A2A"/>
<path transform="translate(113,22)" d="m0 0c2.625 0.9375 2.625 0.9375 5 2-2.3595 2.3595-3.779 2.4914-7 3v-4l2-1z" fill="#393939"/>
<path transform="translate(94,374)" d="m0 0 5 2-2 3-4-2 1-3z" fill="#282828"/>
<path transform="translate(36,291)" d="m0 0 5 1v3h-2l-1 2-2-6z" fill="#464646"/>
</svg>
